<svg width="157" height="17" viewBox="0 0 157 17" fill="none" xmlns="http://www.w3.org/2000/svg">
<path d="M42.5347 2.74674L40.1745 5.55457C39.1165 4.27273 37.5498 3.45887 36.1255 3.45887C33.5822 3.45887 31.6493 5.47318 31.6493 8.11823C31.6493 10.7633 33.5822 12.859 36.1255 12.859C37.4888 12.859 39.0351 12.1265 40.1745 10.9667L42.555 13.4897C40.8256 15.2599 38.2823 16.44 35.9221 16.44C31.0796 16.44 27.4783 12.8793 27.4783 8.17927C27.4783 3.47922 31.161 0.0406494 36.0645 0.0406494C38.445 0.0406494 40.9273 1.09867 42.5347 2.74674Z" fill="#B01F24"/>
<path d="M59.9104 8.19962C59.9104 12.8793 56.187 16.44 51.2021 16.44C46.2172 16.44 42.5142 12.8997 42.5142 8.19962C42.5142 3.49956 46.2376 0.0406494 51.2021 0.0406494C56.1667 0.0406494 59.9104 3.54026 59.9104 8.19962ZM46.7055 8.21996C46.7055 10.9261 48.8012 13.0218 51.2632 13.0218C53.7251 13.0218 55.7191 10.9261 55.7191 8.21996C55.7191 5.51387 53.7454 3.45887 51.2632 3.45887C48.7809 3.45887 46.7055 5.49353 46.7055 8.21996Z" fill="#B01F24"/>
<path d="M72.4031 12.8387V16.2569H61.4973V0.183105H65.587V12.8387H72.4031Z" fill="#B01F24"/>
<path d="M88.2532 9.50183C88.2532 13.7543 85.425 16.44 80.9284 16.44C76.4318 16.44 73.502 13.7543 73.502 9.50183V0.183105H77.5916V9.50183C77.5916 11.6789 78.9955 13.0218 80.9488 13.0218C82.902 13.0218 84.1839 11.6993 84.1839 9.50183V0.183105H88.2532V9.50183Z" fill="#B01F24"/>
<path d="M104.673 16.2569L104.653 5.81909L100.807 14.6495H98.1417L94.2758 5.81909V16.2569H90.6338V0.16275H95.11L99.4642 9.74598L103.839 0.16275H108.295V16.2569H104.673Z" fill="#B01F24"/>
<path d="M118.55 0.183105C122.151 0.183105 124.45 1.74979 124.45 4.21172C124.45 5.92083 123.392 7.26371 121.703 7.75202C123.718 8.13861 125.02 9.72564 125.02 11.8213C125.02 14.5478 122.639 16.2772 118.835 16.2772H110.96V0.183105H118.57H118.55ZM115.03 6.61262H118.346C119.547 6.61262 120.3 5.96153 120.3 4.9442C120.3 3.92687 119.547 3.31647 118.346 3.31647H115.03V6.63296V6.61262ZM115.03 13.1235H118.346C119.872 13.1235 120.808 12.4521 120.808 11.3127C120.808 10.2343 119.872 9.56287 118.346 9.56287H115.03V13.1235Z" fill="#B01F24"/>
<path d="M141.276 9.50183C141.276 13.7543 138.448 16.44 133.951 16.44C129.455 16.44 126.525 13.7543 126.525 9.50183V0.183105H130.615V9.50183C130.615 11.6789 132.018 13.0218 133.972 13.0218C135.925 13.0218 137.207 11.6993 137.207 9.50183V0.183105H141.276V9.50183Z" fill="#B01F24"/>
<path d="M156.17 1.79045L154.624 4.98486C152.915 3.98788 150.778 3.31644 149.476 3.31644C148.418 3.31644 147.706 3.70303 147.706 4.49654C147.706 7.28402 156.211 5.69699 156.211 11.4958C156.211 14.7105 153.362 16.4196 149.781 16.4196C147.096 16.4196 144.329 15.4023 142.436 13.856L144.023 10.7022C145.671 12.1468 148.154 13.1235 149.842 13.1235C151.124 13.1235 151.938 12.6352 151.938 11.7196C151.938 8.87105 143.433 10.5802 143.433 4.88313C143.433 1.91253 145.977 0.0406494 149.842 0.0406494C152.162 0.0406494 154.522 0.752779 156.191 1.83115" fill="#B01F24"/>
<path d="M11.4246 6.10396L9.95962 3.56064L7.88428 4.76108L10.041 8.50485L11.4246 6.10396Z" fill="#575757"/>
<path d="M11.0991 10.336L12.5641 12.8793L14.6394 11.6789L12.4827 7.93512L11.0991 10.336Z" fill="#B01F24"/>
<path d="M14.5783 2.86882H11.8112L14.7411 7.93511C14.8428 8.11823 14.8428 8.36239 14.7411 8.54551L11.7298 13.7542C11.628 13.9373 11.4246 14.0594 11.2008 14.0594H6.0124C5.78859 14.0594 5.58512 13.9373 5.48339 13.7542L2.4721 8.54551C2.37037 8.36239 2.37037 8.11823 2.4721 7.93511L5.48339 2.72639C5.58512 2.54328 5.78859 2.4212 6.0124 2.4212H7.66047L8.31156 1.30214C8.61675 0.773125 9.06438 0.325501 9.59339 0.0406494H6.0124C4.93403 0.0406494 3.93705 0.610353 3.40804 1.54629L0.396757 6.71432C-0.132252 7.65026 -0.132252 8.78967 0.396757 9.72561L3.40804 14.9343C3.93705 15.8703 4.95438 16.44 6.0124 16.44H11.2008C11.7298 16.44 12.2588 16.2975 12.7064 16.033C13.154 15.7685 13.5406 15.4023 13.8051 14.9343L16.8164 9.72561C17.3454 8.78967 17.3454 7.65026 16.8164 6.71432L14.5783 2.84847V2.86882Z" fill="#B01F24"/>
<path d="M22.1269 6.71436L19.1157 1.50564C18.5867 0.569704 17.5897 0 16.5113 0H11.3229C10.2446 0 9.2476 0.569704 8.71859 1.50564L5.7073 6.71436C5.17829 7.6503 5.17829 8.78971 5.7073 9.72565L7.94542 13.5915H10.7125L7.78265 8.52521C7.68092 8.34209 7.68092 8.09793 7.78265 7.91481L10.7939 2.70609C10.8957 2.52297 11.0991 2.40089 11.3229 2.40089H16.5113C16.7351 2.40089 16.9386 2.52297 17.0403 2.70609L20.0516 7.91481C20.1533 8.09793 20.1533 8.34209 20.0516 8.52521L17.0403 13.7339C16.9386 13.917 16.7351 14.0391 16.5113 14.0391H14.8632L14.2122 15.1582C13.907 15.6872 13.4797 16.1145 12.9507 16.4197H16.5317C17.0607 16.4197 17.5897 16.2772 18.0373 16.0127C18.4849 15.7482 18.8715 15.382 19.136 14.914L22.1473 9.70531C22.6763 8.76936 22.6763 7.62996 22.1473 6.69402" fill="#575757"/>
</svg>
