<svg width="90" height="21" viewBox="0 0 90 21" fill="none" xmlns="http://www.w3.org/2000/svg">
<path d="M19.7098 0H6.10563C5.73063 0.285891 5.3973 0.597772 5.06396 0.909653H18.6473C18.9806 0.597772 19.3348 0.285891 19.7098 0Z" fill="#B5121B"/>
<path d="M17.7929 1.89731H4.18872C3.68872 2.46909 3.20955 3.06686 2.81372 3.69062H16.4179C16.8137 3.06686 17.272 2.46909 17.7929 1.89731Z" fill="#B5121B"/>
<path d="M6.60546 21H20.2096C16.8346 18.6349 14.6888 15.1002 14.5221 10.8898H0.917969C1.10547 15.1002 3.23046 18.6349 6.60546 21Z" fill="#B5121B"/>
<path d="M15.5223 5.37996H1.91813C1.5223 6.3156 1.23063 7.30323 1.06396 8.31684H14.6681C14.8348 7.27724 15.1264 6.28961 15.5223 5.37996Z" fill="#B5121B"/>
<path d="M30.6681 17.0495C29.5639 18.0891 27.9389 18.6089 25.814 18.6089C23.8973 18.6089 22.4181 18.0891 21.3765 17.0755C20.3348 16.0359 19.3348 14.5284 19.189 12.5272H22.4181C22.5223 13.4888 23.1265 14.1646 23.564 14.5544C24.0015 14.9443 24.7931 15.1262 25.689 15.1262C26.8556 15.1262 27.7098 14.9443 28.2514 14.5544C28.7931 14.1646 29.0639 13.4629 29.0639 12.4233V1.61137H32.2931V12.6312C32.2931 14.5284 31.7306 16.0099 30.6264 17.0495" fill="#123848"/>
<path d="M42.8346 4.65221L39.918 11.4356H45.7304L42.8138 4.65221H42.8346ZM48.6263 18.1411L47.1054 14.5804H38.6263L37.1055 18.1411H33.8555L40.8971 1.61137H44.8554L51.8763 18.1411H48.6263Z" fill="#123848"/>
<path d="M66.2721 8.55073C66.6471 8.16088 66.8346 7.61508 66.8346 6.91335C66.8346 6.2636 66.6471 5.7438 66.2721 5.35395C65.8971 4.96409 65.3554 4.75617 64.668 4.75617H57.3971V9.1485H64.668C65.3554 9.1485 65.8971 8.94058 66.2721 8.55073ZM66.7304 18.1411L63.4805 12.2933H57.3971V18.1411H54.168V1.61137H65.0221C65.7721 1.61137 66.4596 1.74132 67.0846 2.00123C67.7096 2.26113 68.2304 2.62499 68.6679 3.1188C69.1054 3.58662 69.4388 4.1584 69.6679 4.83414C69.8971 5.4839 70.0221 6.23761 70.0221 7.0433C70.0221 9.6683 69.0221 11.3317 67.0013 12.0074L70.3763 18.1411H66.7513H66.7304Z" fill="#123848"/>
<path d="M85.5431 8.57672C85.9181 8.18687 86.1056 7.66706 86.1056 7.01731C86.1056 6.28959 85.9181 5.7438 85.5431 5.35395C85.1681 4.9641 84.6264 4.78217 83.9181 4.78217H76.6473V9.17449H83.9181C84.6056 9.17449 85.1264 8.99256 85.5014 8.60271M86.3556 2.00123C86.9806 2.26113 87.5014 2.62499 87.9389 3.1188C88.3764 3.58662 88.7098 4.1584 88.9389 4.83415C89.1681 5.4839 89.2931 6.23761 89.2931 7.0433C89.2931 8.75865 88.8556 10.0582 88.0014 10.9678C87.1473 11.8775 85.8556 12.3193 84.1681 12.3193H76.6681V18.1671H73.439V1.61137H84.2931C85.0431 1.61137 85.7306 1.74132 86.3556 2.00123Z" fill="#123848"/>
</svg>
