<svg width="120" height="43" viewBox="0 0 120 43" fill="none" xmlns="http://www.w3.org/2000/svg">
<path d="M13.0993 28.08C11.896 29.004 10.1554 29.4552 7.85612 29.4552C5.79322 29.4552 4.18158 29.004 3.06418 28.1014C1.94677 27.1989 0.850859 25.8452 0.700439 24.0831H4.20307C4.332 24.9211 4.95517 25.5228 5.4494 25.8666C5.92215 26.2105 6.7602 26.3824 7.74867 26.3824C9.0165 26.3824 9.9405 26.2105 10.5207 25.8666C11.1009 25.5228 11.4017 24.8997 11.4017 23.9757V14.4348H14.8829V24.1691C14.8829 25.8452 14.2812 27.156 13.0778 28.08" fill="#1C3444"/>
<path d="M32.5253 29.0255L30.8707 25.8882H21.6951L20.062 29.0255H16.5378L24.1663 14.4133H28.464L36.0709 29.0255H32.5468H32.5253ZM26.2721 17.1209L23.1348 23.1162H29.431L26.2936 17.1209H26.2721Z" fill="#1C3444"/>
<path d="M52.123 29.0255L48.5989 23.8683H42.0019V29.0255H38.5208V14.4133H50.2535C51.07 14.4133 51.8221 14.5208 52.4883 14.7571C53.1544 14.9935 53.7131 15.3158 54.1859 15.7456C54.6586 16.1754 55.0239 16.6696 55.2818 17.2498C55.5397 17.83 55.6686 18.4747 55.6686 19.2053C55.6686 21.526 54.5727 23.0087 52.4023 23.6104L56.0339 29.0255H52.123ZM51.6287 20.559C52.037 20.2152 52.2304 19.721 52.2304 19.1193C52.2304 18.5391 52.037 18.0879 51.6073 17.7441C51.199 17.4002 50.6188 17.2283 49.8667 17.2283H42.0019V21.0963H49.8882C50.6403 21.0963 51.2205 20.9244 51.6287 20.559Z" fill="#1C3444"/>
<path d="M73.3748 14.7786C74.0409 15.0149 74.5996 15.3373 75.0724 15.767C75.5451 16.1968 75.9104 16.691 76.1683 17.2712C76.4261 17.8514 76.5551 18.4961 76.5551 19.2267C76.5551 20.7524 76.0823 21.9128 75.1583 22.6863C74.2343 23.4814 72.8376 23.8682 71.011 23.8682H62.8884V29.0255H59.4072V14.4348H71.14C71.9565 14.4348 72.7086 14.5422 73.3748 14.7786ZM72.4937 20.5805C72.902 20.2367 73.1169 19.7854 73.1169 19.2052C73.1169 18.5605 72.9235 18.0663 72.5152 17.744C72.1069 17.4002 71.5268 17.2283 70.7747 17.2283H62.9099V21.0962H70.7961C71.5267 21.0962 72.1069 20.9243 72.5152 20.5805" fill="#1C3444"/>
<path d="M83.6035 15.939H91.2534C93.3808 15.939 95.0354 16.3903 96.1313 17.2283C97.0553 17.9375 97.5711 18.9259 97.5711 20.1078V20.1508C97.5711 22.1922 96.1098 23.46 93.9825 24.0617L98.0653 28.5743H93.7676L90.179 24.5344H87.2995V28.5743H83.625V15.939H83.6035ZM91.017 22.0847C92.8006 22.0847 93.832 21.3541 93.832 20.3012V20.2582C93.832 19.0763 92.7361 18.4532 90.9526 18.4532H87.2995V22.0847H91.017Z" fill="#046938"/>
<path d="M100.88 15.939H113.494V18.4101H104.533V20.9673H112.42V23.4385H104.533V26.0815H113.602V28.5527H100.859V15.9175" fill="#046938"/>
<path d="M119.489 20.559C118.844 9.62136 109.926 0.940002 99.0533 0.940002C88.1801 0.940002 78.5532 10.309 78.5532 21.8483C78.5532 33.3877 87.7503 42.7567 99.0533 42.7567C110.356 42.7567 118.78 34.1398 119.489 23.2666L118.414 22.1277L117.276 23.3525C116.523 32.9364 108.659 40.5219 99.0533 40.5219C88.9752 40.5219 80.7665 32.1628 80.7665 21.8698C80.7665 11.5768 88.9752 3.21779 99.0533 3.21779C109.131 3.21779 116.652 10.9107 117.297 20.6235L118.436 19.592L119.51 20.602" fill="#046938"/>
</svg>
