<svg width="117" height="17" viewBox="0 0 117 17" fill="none" xmlns="http://www.w3.org/2000/svg">
<g clip-path="url(#clip0_47_1604)">
<path d="M96.2164 0.501343H90.3872V15.8267H96.2164V0.501343Z" fill="#010101"/>
<path d="M12.5889 0.440002V8.95789L6.68594 0.501331H5.62608H0.105469V15.8267H5.62608V7.24068L11.8175 15.8267H12.5889H18.2437V0.440002H12.5889Z" fill="#010101"/>
<path d="M21.0476 0.460449L26.917 0.501335V10.1368C26.917 10.1368 26.8701 12.5013 30.0094 12.3991C30.0094 12.3991 32.7663 12.5695 32.9609 10.1095V0.460449H38.7163L38.7565 10.0141C38.7565 10.0141 39.8298 16.6104 30.0094 16.4128C30.0094 16.4128 20.7592 17.2237 21.0946 10.0346L21.0476 0.460449Z" fill="#010101"/>
<path d="M59.5241 0.467255H56.1836H54.7078L52.293 9.3463L49.8848 0.501326H41.5603V15.8267H46.9132V4.97833C46.9132 5.02603 50.0659 15.8335 50.0659 15.8335L54.5334 15.7722L57.6928 4.90337V15.854H62.9384V0.467255H59.5174H59.5241Z" fill="#010101"/>
<path d="M83.9611 0.467255H80.6206H79.1448L76.73 9.3463L74.3285 0.501326H65.9973V15.8267H71.3502V4.97833C71.3502 5.02603 74.503 15.8335 74.503 15.8335L78.9704 15.7722L82.1299 4.90337V15.854H87.3754V0.467255H83.9544H83.9611Z" fill="#010101"/>
<path d="M116.105 0.501343H101.268V15.8267H116.105V0.501343Z" fill="#2875B9"/>
</g>
<defs>
<clipPath id="clip0_47_1604">
<rect width="116" height="16" fill="white" transform="translate(0.105469 0.440002)"/>
</clipPath>
</defs>
</svg>
