<svg width="333" height="53" viewBox="0 0 333 53" fill="none" xmlns="http://www.w3.org/2000/svg">
<path d="M157.577 36.8783V24.0705C157.577 21.6715 156.784 20.2078 154.182 20.2078C151.214 20.2078 149.953 23.3996 149.953 25.9611V36.8986H145.033V8.07082H149.953V18.3171C151.132 16.5687 153.43 15.6132 155.544 15.6132C159.915 15.6132 162.477 18.7644 162.477 23.0336V36.8783H157.557H157.577Z" fill="white"/>
<path d="M176.728 40.4159C175.711 43.1198 174.004 45.6 170.426 45.6C168.82 45.6 167.701 45.3561 166.644 45.0918V40.9445C167.945 41.1884 168.291 41.3104 169.409 41.3104C170.324 41.3104 171.259 40.9851 171.767 39.745L172.947 36.8378L164.855 16.142H170.263L175.63 31.1455L180.753 16.142H185.754L176.728 40.4362V40.4159Z" fill="white"/>
<path d="M201.531 36.8783L201.205 34.6014C199.985 36.5124 197.688 37.3459 195.452 37.3459C193.399 37.3459 191.711 36.6343 190.451 35.5975C188.011 33.5645 186.832 30.4541 186.832 26.5507C186.832 22.6474 188.052 19.3336 190.491 17.3006C191.752 16.2638 193.399 15.6335 195.493 15.6335C198.095 15.6335 199.985 16.5077 200.86 17.5852V8.07082H205.78V36.858H201.531V36.8783ZM196.428 19.8012C194.883 19.8012 193.826 20.5127 193.114 21.4276C192.097 22.7897 191.813 24.66 191.813 26.4491C191.813 28.2381 192.097 30.1491 193.114 31.5112C193.826 32.4261 194.883 33.1579 196.428 33.1579C200.29 33.1579 201.083 29.4579 201.083 26.4491C201.083 23.4402 200.29 19.7808 196.428 19.7808V19.8012Z" fill="white"/>
<path d="M222.165 20.5534C218.689 20.5534 216.879 23.0743 216.879 26.4084V36.858H211.919V16.1418H216.107L216.534 19.2523C217.469 16.8534 219.929 15.8572 222.328 15.8572C222.836 15.8572 223.344 15.8979 223.873 15.9792V20.7567C223.324 20.6347 222.734 20.5534 222.186 20.5534" fill="white"/>
<path d="M242.515 37.2035C240.381 37.2035 239.202 35.8414 239.039 34.2964C238.084 35.9634 235.725 37.4068 232.818 37.4068C227.939 37.4068 225.398 34.2964 225.398 30.9013C225.398 26.9573 228.427 24.6803 232.33 24.3957L238.368 23.9484V22.6677C238.368 20.716 237.697 19.3945 234.892 19.3945C232.615 19.3945 231.273 20.4314 231.151 22.3424H226.374C226.658 17.6665 230.318 15.5928 234.892 15.5928C238.409 15.5928 241.397 16.711 242.576 19.8215C243.085 21.1429 243.166 22.6067 243.166 24.0094V31.7145C243.166 32.67 243.491 33.0359 244.305 33.0359C244.63 33.0359 244.935 32.9546 244.935 32.9546V36.614C244.101 36.9799 243.674 37.1832 242.495 37.1832M238.368 27.6688L233.164 28.0754C231.659 28.1974 230.216 29.1122 230.216 30.7793C230.216 32.4463 231.598 33.3612 233.123 33.3612C236.193 33.3612 238.368 31.6941 238.368 28.6243V27.6688Z" fill="white"/>
<path d="M262.053 36.8785L261.707 34.1746C260.731 36.2076 258.434 37.4071 255.832 37.4071C251.461 37.4071 248.737 34.4186 248.737 29.9867V16.142H253.656V28.8685C253.656 31.3081 254.592 32.8125 257.214 32.8125C258.353 32.8125 259.145 32.3653 259.735 31.7757C260.914 30.6576 261.239 28.7872 261.239 27.1201V16.142H266.159V36.8785H262.053Z" fill="white"/>
<path d="M277.788 37.1224C274.434 37.1224 272.198 35.4757 272.198 31.5317V8.03029H277.158V30.6778C277.158 31.8773 277.443 32.6702 279.13 32.6702C279.557 32.6702 279.679 32.6295 279.964 32.6295V36.8175C278.988 37.0208 278.784 37.1021 277.788 37.1021" fill="white"/>
<path d="M284.13 8.11171H289.416V13.2552H284.13V8.11171ZM284.293 16.142H289.294V36.8785H284.293V16.142Z" fill="white"/>
<path d="M310.458 34.0525C309.035 35.8416 306.555 37.3257 303.444 37.3257C300.334 37.3257 297.732 35.8009 296.309 34.0525C294.784 32.1009 294.072 29.4986 294.072 26.4695C294.072 23.4403 294.784 20.8381 296.309 18.8864C297.732 17.138 300.334 15.6133 303.444 15.6133C306.555 15.6133 309.035 17.0771 310.458 18.8864C311.393 20.1265 311.963 21.7529 312.044 23.3997H307.205C307.165 22.6474 306.921 21.9969 306.616 21.4886C306.026 20.5738 304.969 19.9436 303.465 19.9436C302.123 19.9436 301.147 20.4925 300.476 21.2244C299.297 22.5458 299.094 24.5381 299.094 26.4898C299.094 28.4415 299.297 30.3931 300.476 31.7146C301.147 32.4261 302.123 33.036 303.465 33.036C304.969 33.036 306.026 32.4058 306.616 31.4706C306.941 30.9624 307.165 30.3118 307.205 29.5596H312.044C311.963 31.2063 311.414 32.8327 310.458 34.0729" fill="white"/>
<path d="M330.564 35.008C328.918 36.675 326.336 37.4069 323.551 37.4069C320.948 37.4069 318.631 36.6547 316.923 35.008C315.744 33.8492 314.748 32.1415 314.748 30.1898H319.363C319.363 31.1046 319.83 32.1008 320.461 32.6294C321.253 33.2596 322.148 33.5442 323.571 33.5442C325.218 33.5442 327.759 33.1783 327.759 30.9217C327.759 29.7222 326.966 28.9293 325.706 28.726C323.896 28.4414 321.843 28.3194 320.034 27.9332C317.228 27.3436 315.337 25.026 315.337 22.3831C315.337 20.2688 316.212 18.7847 317.431 17.7072C318.936 16.3858 321.091 15.6336 323.652 15.6336C326.214 15.6336 328.572 16.4264 330.077 18.0732C331.174 19.2726 331.886 20.8177 331.886 22.3424H327.19C327.19 21.5496 326.844 20.899 326.356 20.3908C325.767 19.8012 324.709 19.4353 323.673 19.4353C322.961 19.4353 322.29 19.4353 321.538 19.7605C320.664 20.1265 319.952 20.8787 319.952 21.9562C319.952 23.4402 321.213 23.8672 322.31 24.0298C324.161 24.2738 324.669 24.3144 326.681 24.6194C329.914 25.148 332.272 27.2216 332.272 30.4744C332.272 32.4667 331.561 33.9508 330.503 35.0283" fill="white"/>
<path d="M106.081 2.56157C106.081 3.98466 104.922 5.14347 103.52 5.14347C102.117 5.14347 100.958 3.98466 100.958 2.56157C100.958 1.13848 102.117 0 103.52 0C104.922 0 106.081 1.15881 106.081 2.56157Z" fill="white"/>
<path d="M123.362 8.88393C121.004 8.88393 119.073 10.7949 119.073 13.1735C119.073 15.5521 120.984 17.4632 123.362 17.4632C125.741 17.4632 127.652 15.5521 127.652 13.1735C127.652 10.7949 125.741 8.88393 123.362 8.88393Z" fill="white"/>
<path d="M106.081 50.4181C106.081 48.995 104.922 47.8565 103.52 47.8565C102.117 47.8565 100.958 49.0153 100.958 50.4181C100.958 51.8209 102.117 53 103.52 53C104.922 53 106.081 51.8412 106.081 50.4181Z" fill="white"/>
<path d="M127.652 39.8263C127.652 37.468 125.741 35.5366 123.362 35.5366C120.984 35.5366 119.073 37.4476 119.073 39.8263C119.073 42.2049 120.984 44.1159 123.362 44.1159C125.741 44.1159 127.652 42.2049 127.652 39.8263Z" fill="white"/>
<path d="M117.202 5.87537C116.734 7.60342 114.945 8.64024 113.217 8.17265C111.489 7.70507 110.452 5.91603 110.92 4.18799C111.387 2.43962 113.176 1.42312 114.905 1.89071C116.633 2.3583 117.669 4.14733 117.202 5.87537Z" fill="white"/>
<path d="M117.202 48.7916C116.734 50.5196 114.945 51.5565 113.217 51.0889C111.489 50.6213 110.452 48.8323 110.92 47.1042C111.387 45.3762 113.176 44.3393 114.905 44.8069C116.633 45.2745 117.669 47.0636 117.202 48.7916Z" fill="white"/>
<path d="M132.286 26.5102C132.286 23.8266 130.111 21.631 127.407 21.631C124.703 21.631 122.528 23.8063 122.528 26.5102C122.528 29.2141 124.703 31.3894 127.407 31.3894C130.111 31.3894 132.286 29.2141 132.286 26.5102Z" fill="white"/>
<path d="M0 15.7758H5.52973L9.83967 29.3968L14.8815 15.7758H19.7403L24.7212 29.3968L29.1937 15.7758H34.7235L27.486 37.1018H22.3426L17.2601 23.1962L12.1166 37.1018H6.91217L0 15.7758Z" fill="white"/>
<path d="M112.79 22.1189C112.201 20.7568 111.408 19.5776 110.391 18.5815C109.375 17.5853 108.175 16.7924 106.793 16.2029C105.411 15.6336 103.926 15.3287 102.341 15.3287C100.755 15.3287 99.2506 15.6133 97.8681 16.2029C96.506 16.7924 95.3066 17.565 94.2901 18.5815C93.2736 19.5776 92.4807 20.7568 91.9115 22.1189C91.3422 23.481 91.0576 24.9244 91.0576 26.4491C91.0576 27.9739 91.3422 29.4173 91.9115 30.7591C92.4807 32.1009 93.2736 33.28 94.2901 34.2965C95.3066 35.313 96.506 36.1058 97.8681 36.6954C99.2302 37.2647 100.735 37.5696 102.341 37.5696C103.947 37.5696 105.451 37.285 106.834 36.6954C108.216 36.1058 109.416 35.313 110.412 34.2965C111.408 33.28 112.201 32.1009 112.79 30.7591C113.36 29.4173 113.664 27.9739 113.664 26.4491C113.664 24.9244 113.38 23.481 112.79 22.1189ZM107.789 28.7667C107.484 29.4986 107.078 30.1085 106.549 30.6574C106.02 31.186 105.411 31.6129 104.699 31.9179C103.987 32.2432 103.215 32.3855 102.402 32.3855C101.589 32.3855 100.816 32.2228 100.104 31.9179C99.3929 31.5926 98.783 31.186 98.2544 30.6574C97.7258 30.1289 97.3192 29.4986 97.0143 28.7667C96.7093 28.0349 96.567 27.2623 96.567 26.4085C96.567 25.5546 96.7093 24.8024 97.0143 24.0705C97.3192 23.3387 97.7258 22.7084 98.2544 22.1799C98.783 21.6513 99.3929 21.2243 100.104 20.9194C100.816 20.5941 101.589 20.4518 102.402 20.4518C103.215 20.4518 103.987 20.6145 104.699 20.9194C105.411 21.2447 106.02 21.6513 106.549 22.1799C107.078 22.7084 107.484 23.3387 107.789 24.0705C108.094 24.8024 108.236 25.5953 108.236 26.4085C108.236 27.2217 108.094 28.0349 107.789 28.7667Z" fill="white"/>
<path d="M75.4033 15.776H80.7704V19.0491C81.299 17.7886 82.0715 16.8535 83.088 16.2639C84.1045 15.6743 85.304 15.3694 86.6661 15.3694C87.3776 15.3694 88.0485 15.4507 88.6584 15.6133C89.2886 15.776 89.8172 15.959 90.2645 16.2029L88.2925 21.5903C88.0079 21.387 87.6013 21.2041 87.1133 21.0618C86.6051 20.9195 86.0562 20.8381 85.4463 20.8381C84.0435 20.8381 82.9254 21.2244 82.0919 21.9969C81.238 22.7695 80.8314 24.0706 80.8314 25.8596V37.1224H75.4236V15.776H75.4033Z" fill="white"/>
<path d="M70.6257 21.875C70.0565 20.4926 69.3043 19.3338 68.3488 18.358C67.3933 17.3821 66.3158 16.6299 65.0757 16.1217C63.8355 15.6134 62.5344 15.3491 61.1927 15.3491C59.7492 15.3491 58.4278 15.6541 57.2893 16.264C56.1305 16.8739 55.1953 17.7074 54.4838 18.7442V15.7761H49.1167V47.7753H54.5448V34.5202C55.2563 35.5164 56.1915 36.2889 57.3503 36.7972C58.5091 37.3054 59.8102 37.5697 61.274 37.5697C62.5954 37.5697 63.8559 37.3054 65.096 36.7972C66.3158 36.2889 67.4136 35.5367 68.3488 34.5609C69.3043 33.5851 70.0565 32.4263 70.6461 31.0642C71.2356 29.702 71.5203 28.1773 71.5203 26.4696C71.5203 24.7619 71.2356 23.2575 70.6664 21.875M65.5636 28.7669C65.2586 29.4987 64.8317 30.129 64.3031 30.6576C63.7746 31.2065 63.1443 31.6334 62.4328 31.9383C61.7212 32.2636 60.9487 32.4059 60.1355 32.4059C59.3223 32.4059 58.5091 32.2433 57.7772 31.9383C57.0454 31.6131 56.4151 31.1861 55.9069 30.6576C55.3783 30.1086 54.9717 29.4784 54.6668 28.7669C54.3618 28.035 54.2195 27.2625 54.2195 26.4086C54.2195 25.5547 54.3618 24.8025 54.6668 24.0707C54.9717 23.3388 55.3783 22.6882 55.9069 22.1596C56.4355 21.6107 57.0657 21.1838 57.7772 20.8789C58.5091 20.5536 59.2817 20.4113 60.1355 20.4113C60.9894 20.4113 61.7212 20.5739 62.4328 20.8789C63.1443 21.2041 63.7746 21.6311 64.3031 22.1596C64.852 22.7086 65.2586 23.3388 65.5636 24.0503C65.8685 24.7822 66.0109 25.5547 66.0109 26.4086C66.0109 27.2625 65.8685 28.035 65.5636 28.7669Z" fill="white"/>
<path d="M41.9405 6.24121C40.2327 5.77362 38.464 6.79012 38.0168 8.51816C37.5492 10.2259 38.5657 11.9946 40.2937 12.4418C42.0015 12.9094 43.7702 11.8929 44.2174 10.1649C44.6647 8.45717 43.6482 6.68847 41.9405 6.24121Z" fill="white"/>
<path d="M44.1158 15.7758H38.5454V37.1222H44.1158V15.7758Z" fill="white"/>
</svg>
